<?xml version="1.0" encoding="UTF-8" standalone="no"?>
<!DOCTYPE svg PUBLIC "-//W3C//DTD SVG 1.1//EN"
 "http://www.w3.org/Graphics/SVG/1.1/DTD/svg11.dtd">
<!-- Generated by graphviz version 2.38.0 (20140413.2041)
 -->
<!-- Title: %3 Pages: 1 -->
<svg width="383pt" height="218pt"
 viewBox="0.00 0.00 383.30 218.00" xmlns="http://www.w3.org/2000/svg" xmlns:xlink="http://www.w3.org/1999/xlink">
<g id="graph0" class="graph" transform="scale(1 1) rotate(0) translate(4 214)">
<title>%3</title>
<polygon fill="white" stroke="none" points="-4,4 -4,-214 379.296,-214 379.296,4 -4,4"/>
<!-- web -->
<g id="node1" class="node"><title>web</title>
<ellipse fill="none" stroke="black" cx="221.296" cy="-105" rx="27" ry="18"/>
<text text-anchor="middle" x="221.296" y="-101.3" font-family="Times,serif" font-size="14.00">web</text>
</g>
<!-- postgres -->
<g id="node2" class="node"><title>postgres</title>
<ellipse fill="none" stroke="black" cx="40.2964" cy="-18" rx="40.0939" ry="18"/>
<text text-anchor="middle" x="40.2964" y="-14.3" font-family="Times,serif" font-size="14.00">postgres</text>
</g>
<!-- web&#45;&gt;postgres -->
<g id="edge1" class="edge"><title>web&#45;&gt;postgres</title>
<path fill="none" stroke="black" d="M199.823,-93.9156C169.392,-79.6252 113.328,-53.2964 76.4265,-35.9672"/>
<polygon fill="black" stroke="black" points="77.5643,-32.6348 67.0249,-31.552 74.5887,-38.9709 77.5643,-32.6348"/>
<text text-anchor="middle" x="180.296" y="-57.8" font-family="Times,serif" font-size="14.00">postgres:5432</text>
</g>
<!-- code -->
<g id="node4" class="node"><title>code</title>
<polygon fill="none" stroke="black" points="375.296,-18 361.796,-36 334.796,-36 321.296,-18 334.796,-2.4869e-14 361.796,-0 375.296,-18"/>
<text text-anchor="middle" x="348.296" y="-14.3" font-family="Times,serif" font-size="14.00">.</text>
</g>
<!-- web&#45;&gt;code -->
<g id="edge5" class="edge"><title>web&#45;&gt;code</title>
<path fill="none" stroke="black" d="M243.082,-94.0841C256.521,-87.6151 273.883,-78.61 288.296,-69 301.062,-60.4882 314.265,-49.7322 325.025,-40.3789"/>
<polygon fill="black" stroke="black" points="327.561,-42.8089 332.729,-33.5603 322.921,-37.5671 327.561,-42.8089"/>
<text text-anchor="middle" x="323.296" y="-57.8" font-family="Times,serif" font-size="14.00">/code</text>
</g>
<!-- volume -->
<g id="node5" class="node"><title>volume</title>
<polygon fill="none" stroke="black" points="263.884,-18 230.59,-36 164.003,-36 130.709,-18 164.003,-2.4869e-14 230.59,-0 263.884,-18"/>
<text text-anchor="middle" x="197.296" y="-14.3" font-family="Times,serif" font-size="14.00">logvolume01</text>
</g>
<!-- web&#45;&gt;volume -->
<g id="edge6" class="edge"><title>web&#45;&gt;volume</title>
<path fill="none" stroke="black" d="M232.705,-88.358C238.542,-78.3331 243.441,-65.1567 238.296,-54 236.582,-50.2818 234.256,-46.8122 231.577,-43.6149"/>
<polygon fill="black" stroke="black" points="233.844,-40.9273 224.341,-36.2416 228.848,-45.8303 233.844,-40.9273"/>
<text text-anchor="middle" x="262.796" y="-57.8" font-family="Times,serif" font-size="14.00">/var/log</text>
</g>
<!-- localhost -->
<g id="node3" class="node"><title>localhost</title>
<ellipse fill="none" stroke="black" cx="159.296" cy="-192" rx="42.4939" ry="18"/>
<text text-anchor="middle" x="159.296" y="-188.3" font-family="Times,serif" font-size="14.00">localhost</text>
</g>
<!-- localhost&#45;&gt;web -->
<g id="edge2" class="edge"><title>localhost&#45;&gt;web</title>
<path fill="none" stroke="black" d="M171.251,-174.611C180.517,-161.907 193.491,-144.12 203.907,-129.84"/>
<polygon fill="black" stroke="black" points="206.94,-131.621 210.006,-121.479 201.285,-127.496 206.94,-131.621"/>
<text text-anchor="middle" x="221.296" y="-144.8" font-family="Times,serif" font-size="14.00">web:5000</text>
</g>
<!-- localhost&#45;&gt;postgres -->
<g id="edge3" class="edge"><title>localhost&#45;&gt;postgres</title>
<path fill="none" stroke="black" d="M128.326,-179.736C103.726,-169.074 70.6668,-150.56 53.2964,-123 38.8719,-100.114 36.817,-68.734 37.6293,-46.4445"/>
<polygon fill="black" stroke="black" points="41.1321,-46.4955 38.2167,-36.3097 34.1438,-46.0904 41.1321,-46.4955"/>
<text text-anchor="middle" x="91.2964" y="-101.3" font-family="Times,serif" font-size="14.00">postgres:5432</text>
</g>
<!-- localhost&#45;&gt;code -->
<g id="edge4" class="edge"><title>localhost&#45;&gt;code</title>
<path fill="none" stroke="black" d="M194.001,-181.663C212.196,-175.87 234.366,-167.347 252.296,-156 299.308,-126.25 317.554,-118.829 342.296,-69 345.772,-62.0014 347.552,-53.7953 348.396,-46.0777"/>
<polygon fill="black" stroke="black" points="351.894,-46.2191 349.04,-36.016 344.909,-45.7721 351.894,-46.2191"/>
<text text-anchor="middle" x="335.296" y="-101.3" font-family="Times,serif" font-size="14.00">./</text>
</g>
<!-- localhost&#45;&gt;volume -->
<g id="edge7" class="edge"><title>localhost&#45;&gt;volume</title>
<path fill="none" stroke="black" stroke-dasharray="1,5" d="M151.175,-174.2C139.339,-147.105 120.96,-92.868 142.296,-54 145.02,-49.0393 148.777,-44.6812 153.061,-40.8795"/>
<polygon fill="black" stroke="black" points="155.416,-43.4844 161.231,-34.6276 151.162,-37.9253 155.416,-43.4844"/>
</g>
</g>
</svg>
