<?xml version="1.0" encoding="UTF-8" standalone="no"?>
<!DOCTYPE svg PUBLIC "-//W3C//DTD SVG 1.1//EN"
 "http://www.w3.org/Graphics/SVG/1.1/DTD/svg11.dtd">
<!-- Generated by graphviz version 2.38.0 (20140413.2041)
 -->
<!-- Title: %3 Pages: 1 -->
<svg width="623pt" height="116pt"
 viewBox="0.00 0.00 622.73 116.00" xmlns="http://www.w3.org/2000/svg" xmlns:xlink="http://www.w3.org/1999/xlink">
<g id="graph0" class="graph" transform="scale(1 1) rotate(0) translate(4 112)">
<title>%3</title>
<polygon fill="white" stroke="none" points="-4,4 -4,-112 618.733,-112 618.733,4 -4,4"/>
<!-- controller -->
<g id="node1" class="node"><title>controller</title>
<ellipse fill="none" stroke="black" cx="324.641" cy="-90" rx="102.082" ry="18"/>
<text text-anchor="middle" x="324.641" y="-86.3" font-family="Times,serif" font-size="14.00">frontend&#45;service (node.js)</text>
</g>
<!-- customer -->
<g id="node2" class="node"><title>customer</title>
<ellipse fill="none" stroke="black" cx="104.641" cy="-18" rx="104.782" ry="18"/>
<text text-anchor="middle" x="104.641" y="-14.3" font-family="Times,serif" font-size="14.00">customer&#45;service (node.js)</text>
</g>
<!-- controller&#45;&gt;customer -->
<g id="edge1" class="edge"><title>controller&#45;&gt;customer</title>
<path fill="none" stroke="black" d="M277.445,-73.9832C243.631,-63.2242 197.91,-48.6765 161.99,-37.2476"/>
<polygon fill="black" stroke="black" points="162.728,-33.8094 152.137,-34.1125 160.605,-40.4799 162.728,-33.8094"/>
</g>
<!-- present -->
<g id="node3" class="node"><title>present</title>
<ellipse fill="none" stroke="black" cx="324.641" cy="-18" rx="97.4827" ry="18"/>
<text text-anchor="middle" x="324.641" y="-14.3" font-family="Times,serif" font-size="14.00">present&#45;service (node.js)</text>
</g>
<!-- controller&#45;&gt;present -->
<g id="edge2" class="edge"><title>controller&#45;&gt;present</title>
<path fill="none" stroke="black" d="M324.641,-71.6966C324.641,-63.9827 324.641,-54.7125 324.641,-46.1124"/>
<polygon fill="black" stroke="black" points="328.141,-46.1043 324.641,-36.1043 321.141,-46.1044 328.141,-46.1043"/>
</g>
<!-- parcel -->
<g id="node4" class="node"><title>parcel</title>
<ellipse fill="none" stroke="black" cx="527.641" cy="-18" rx="87.1846" ry="18"/>
<text text-anchor="middle" x="527.641" y="-14.3" font-family="Times,serif" font-size="14.00">parcel&#45;service (Scala)</text>
</g>
<!-- controller&#45;&gt;parcel -->
<g id="edge3" class="edge"><title>controller&#45;&gt;parcel</title>
<path fill="none" stroke="black" d="M368.939,-73.7247C400.262,-62.9236 442.376,-48.4015 475.35,-37.0312"/>
<polygon fill="black" stroke="black" points="476.516,-40.3316 484.828,-33.7628 474.234,-33.714 476.516,-40.3316"/>
</g>
</g>
</svg>
